<?xml version="1.0" encoding="utf-8"?>
<!-- Generator: Adobe Illustrator 16.0.0, SVG Export Plug-In . SVG Version: 6.00 Build 0)  -->
<!DOCTYPE svg PUBLIC "-//W3C//DTD SVG 1.0//EN" "http://www.w3.org/TR/2001/REC-SVG-20010904/DTD/svg10.dtd">
<svg version="1.0" id="Layer_1" xmlns="http://www.w3.org/2000/svg" xmlns:xlink="http://www.w3.org/1999/xlink" x="0px" y="0px"
	 width="1296px" height="432px" viewBox="0 0 1296 432" enable-background="new 0 0 1296 432" xml:space="preserve">
<g>
	<path d="M622.422,360.121v-21.87c-7.834,9.454-15.998,15.864-24.502,19.237c-8.505,3.373-18.428,5.063-29.768,5.063
		c-10.264,0-19.782-1.62-28.553-4.859c-8.777-3.24-15.998-7.695-21.667-13.365c-9.992-10.258-16.339-23.085-19.035-38.475
		c-2.702-15.391-4.05-31.591-4.05-48.601c0-8.365,0.266-16.668,0.81-24.907c0.538-8.232,1.62-16.061,3.24-23.49
		c1.62-7.423,3.98-14.377,7.088-20.857c3.101-6.48,7.087-12.283,11.947-17.415c5.67-5.67,12.821-10.125,21.465-13.365
		c8.638-3.24,18.086-4.86,28.35-4.86c11.068,0,20.921,1.62,29.565,4.86c8.637,3.24,16.739,9.315,24.299,18.225V71.761h41.311v288.36
		H622.422z M621.611,257.251c0-9.176-0.475-17.884-1.416-26.122c-0.949-8.233-2.904-15.454-5.873-21.668
		c-2.975-6.208-7.291-11.137-12.96-14.782c-5.67-3.645-13.099-5.468-22.275-5.468c-9.455,0-17.01,1.823-22.68,5.468
		s-9.992,8.575-12.96,14.782c-2.974,6.214-4.93,13.435-5.873,21.668c-0.949,8.238-1.417,16.946-1.417,26.122
		c0,9.183,0.468,17.89,1.417,26.123c0.943,8.239,2.898,15.528,5.873,21.869c2.968,6.348,7.29,11.341,12.96,14.985
		c5.67,3.646,13.226,5.468,22.68,5.468c9.176,0,16.605-1.822,22.275-5.468c5.669-3.645,9.985-8.638,12.96-14.985
		c2.969-6.341,4.924-13.63,5.873-21.869C621.137,275.141,621.611,266.434,621.611,257.251z"/>
	<path d="M835.045,360.121v-18.63c-7.563,7.562-15.39,12.96-23.49,16.2c-8.1,3.239-18.497,4.859-31.185,4.859
		c-12.96,0-23.832-1.557-32.603-4.657c-8.777-3.101-16.27-7.758-22.478-13.973c-10.803-11.34-16.2-26.053-16.2-44.145
		c0-17.276,5.936-31.451,17.82-42.525c11.878-11.067,29.697-16.604,53.46-16.604h53.864v-14.58c0-13.226-3.442-22.946-10.327-29.16
		c-6.885-6.208-18.428-9.315-34.627-9.315c-11.074,0-19.846,1.557-26.325,4.657c-6.48,3.107-12.694,8.303-18.63,15.593
		l-26.73-25.515c4.86-5.67,9.783-10.391,14.782-14.175c4.993-3.778,10.392-6.885,16.2-9.315c5.803-2.43,12.15-4.113,19.035-5.063
		c6.885-0.943,14.644-1.417,23.287-1.417c28.616,0,49.879,5.942,63.788,17.82c13.902,11.884,20.857,29.432,20.857,52.65v137.295
		H835.045z M834.234,269.401H786.85c-25.109,0-37.665,9.859-37.665,29.564c0,9.454,3.038,16.675,9.112,21.668
		c6.075,4.999,15.998,7.492,29.768,7.492c7.29,0,13.973-0.671,20.048-2.024c6.075-1.349,11.809-4.588,17.213-9.721
		c5.936-5.67,8.909-15.795,8.909-30.375V269.401z"/>
	<path d="M1048.074,202.981c-4.594-4.588-9.112-8.03-13.567-10.327c-4.455-2.291-10.194-3.443-17.213-3.443
		c-11.34,0-20.996,4.12-28.957,12.353c-7.967,8.239-11.947,19.51-11.947,33.817v124.74h-41.311V154.786h40.5v22.275
		c5.398-7.29,12.96-13.226,22.681-17.82c9.72-4.588,20.383-6.885,31.995-6.885c9.985,0,18.896,1.487,26.729,4.455
		c7.828,2.974,15.251,7.967,22.275,14.985L1048.074,202.981z"/>
	<path d="M1245.309,333.391c-9.721,10.265-19.846,17.688-30.375,22.275c-10.53,4.588-22.952,6.885-37.261,6.885
		c-11.611,0-22.882-1.892-33.817-5.67c-10.935-3.777-20.655-9.853-29.16-18.225c-8.505-8.366-15.39-19.237-20.654-32.603
		c-5.266-13.365-7.897-29.628-7.897-48.803c0-19.168,2.632-35.438,7.897-48.802c5.265-13.365,12.149-24.161,20.654-32.4
		c8.505-8.233,18.226-14.238,29.16-18.023c10.936-3.778,22.206-5.67,33.817-5.67c14.309,0,26.73,2.228,37.261,6.683
		c10.529,4.455,20.654,11.814,30.375,22.073l-28.351,27.54c-6.479-7.018-12.624-12.011-18.428-14.985
		c-5.809-2.968-12.757-4.455-20.857-4.455c-16.199,0-28.894,6.075-38.069,18.225c-4.595,5.67-7.765,12.353-9.518,20.047
		c-1.76,7.695-2.633,17.618-2.633,29.768c0,12.15,0.873,22.143,2.633,29.97c1.753,7.835,4.923,14.58,9.518,20.25
		c9.176,12.15,21.87,18.226,38.069,18.226c8.101,0,15.049-1.481,20.857-4.455c5.804-2.968,11.948-7.961,18.428-14.985
		L1245.309,333.391z"/>
</g>
<path d="M0,0v432h432V0H0z M144,360H72V72h72V360z M216,360h-36V72h36V360z"/>
<g>
</g>
<g>
</g>
<g>
</g>
<g>
</g>
<g>
</g>
<g>
</g>
</svg>
